<?xml version="1.0" encoding="UTF-8" standalone="no"?>
<!-- Created with Inkscape (http://www.inkscape.org/) -->

<svg
   xmlns:dc="http://purl.org/dc/elements/1.1/"
   xmlns:cc="http://creativecommons.org/ns#"
   xmlns:rdf="http://www.w3.org/1999/02/22-rdf-syntax-ns#"
   xmlns:svg="http://www.w3.org/2000/svg"
   xmlns="http://www.w3.org/2000/svg"
   xmlns:sodipodi="http://sodipodi.sourceforge.net/DTD/sodipodi-0.dtd"
   xmlns:inkscape="http://www.inkscape.org/namespaces/inkscape"
   width="30.541576mm"
   height="45.769829mm"
   viewBox="0 0 108.21818 162.17656"
   id="svg8884"
   version="1.1"
   inkscape:version="0.91 r13725"
   sodipodi:docname="debian-sticker.svg"
   inkscape:export-filename="debian-sticker.png"
   inkscape:export-xdpi="300.01099"
   inkscape:export-ydpi="300.01099">
  <defs
     id="defs8886" />
  <sodipodi:namedview
     id="base"
     pagecolor="#ffffff"
     bordercolor="#666666"
     borderopacity="1.0"
     inkscape:pageopacity="0.0"
     inkscape:pageshadow="2"
     inkscape:zoom="1.979899"
     inkscape:cx="38.253557"
     inkscape:cy="60.809187"
     inkscape:document-units="px"
     inkscape:current-layer="layer1"
     showgrid="false"
     fit-margin-top="0"
     fit-margin-left="0"
     fit-margin-right="0"
     fit-margin-bottom="0"
     inkscape:window-width="1855"
     inkscape:window-height="1056"
     inkscape:window-x="65"
     inkscape:window-y="24"
     inkscape:window-maximized="1" />
  <metadata
     id="metadata8889">
    <rdf:RDF>
      <cc:Work
         rdf:about="">
        <dc:format>image/svg+xml</dc:format>
        <dc:type
           rdf:resource="http://purl.org/dc/dcmitype/StillImage" />
        <dc:title></dc:title>
      </cc:Work>
    </rdf:RDF>
  </metadata>
  <g
     inkscape:label="Layer 1"
     inkscape:groupmode="layer"
     id="layer1"
     transform="translate(-283.03377,-391.27392)">
    <g
       transform="translate(-45.098893,-794.17554)"
       id="g8804">
      <g
         id="g8799">
        <rect
           style="opacity:1;fill:#ffffff;fill-opacity:1;stroke:#333333;stroke-width:2.11010385;stroke-linecap:round;stroke-linejoin:bevel;stroke-miterlimit:4;stroke-dasharray:none;stroke-dashoffset:0;stroke-opacity:1"
           id="rect5410"
           width="106.10808"
           height="160.06645"
           x="329.18771"
           y="1186.5045"
           ry="7.2529764" />
        <path
           inkscape:connector-curvature="0"
           style="fill:#333333;fill-opacity:1;stroke-width:7;stroke-linecap:round;stroke-linejoin:bevel;stroke-miterlimit:4;stroke-dashoffset:0;stroke-opacity:1"
           d="m 380.14108,1300.6763 c -17.80834,0.017 -34.94176,1.8801 -50.95336,5.5201 l 0,33.1212 c 0,4.0181 3.23533,7.2534 7.25348,7.2534 l 91.60112,0 c 4.01815,0 7.25348,-3.2353 7.25348,-7.2534 l 0,-33.0929 c -18.75127,-3.7266 -37.29112,-5.5654 -55.15472,-5.5484 z"
           id="rect6381" />
        <path
           inkscape:connector-curvature="0"
           style="font-style:normal;font-weight:normal;font-size:26.28392601px;font-family:'Bitstream Vera Sans';fill:#333333;fill-opacity:1;stroke:none;stroke-width:1px;stroke-linecap:butt;stroke-linejoin:miter;stroke-opacity:1"
           d="m 336.52215,1292.2446 0,2.1703 0.98265,0 c 0.36365,0 0.64478,-0.094 0.84338,-0.2824 0.19859,-0.1883 0.29788,-0.4565 0.29789,-0.8047 -1e-5,-0.3456 -0.0993,-0.6125 -0.29789,-0.8008 -0.1986,-0.1883 -0.47973,-0.2824 -0.84338,-0.2824 l -0.98265,0 m -0.78148,-0.6422 1.76413,0 c 0.64736,0 1.1361,0.147 1.46624,0.441 0.3327,0.2915 0.49906,0.7196 0.49906,1.2844 0,0.57 -0.16636,1.0007 -0.49906,1.2922 -0.33014,0.2914 -0.81888,0.4371 -1.46624,0.4371 l -0.98265,0 0,2.3213 -0.78148,0 0,-5.776 m 6.15124,1.9421 c -0.38171,0 -0.68347,0.1496 -0.90527,0.4487 -0.22181,0.2966 -0.33271,0.7041 -0.33271,1.2225 0,0.5185 0.10961,0.9272 0.32884,1.2264 0.2218,0.2966 0.52485,0.4449 0.90914,0.4449 0.37913,0 0.6796,-0.1496 0.90141,-0.4487 0.22181,-0.2992 0.33271,-0.7067 0.33271,-1.2226 0,-0.5132 -0.1109,-0.9194 -0.33271,-1.2186 -0.22181,-0.3018 -0.52228,-0.4526 -0.90141,-0.4526 m 0,-0.6036 c 0.61899,0 1.10516,0.2012 1.45851,0.6036 0.35334,0.4023 0.53001,0.9594 0.53001,1.6712 0,0.7093 -0.17667,1.2664 -0.53001,1.6713 -0.35335,0.4024 -0.83952,0.6035 -1.45851,0.6035 -0.62157,0 -1.10903,-0.2011 -1.46237,-0.6035 -0.35076,-0.4049 -0.52614,-0.962 -0.52614,-1.6713 0,-0.7118 0.17538,-1.2689 0.52614,-1.6712 0.35334,-0.4024 0.8408,-0.6036 1.46237,-0.6036 m 2.75066,0.1045 0.71184,0 0.8898,3.3813 0.88594,-3.3813 0.83951,0 0.8898,3.3813 0.88593,-3.3813 0.71185,0 -1.13354,4.333 -0.83951,0 -0.93235,-3.5515 -0.93623,3.5515 -0.83951,0 -1.13353,-4.333 m 10.60413,1.9885 0,0.3482 -3.27293,0 c 0.0309,0.49 0.17796,0.864 0.44103,1.1219 0.26565,0.2554 0.63447,0.383 1.10645,0.383 0.27339,0 0.53775,-0.034 0.79309,-0.1006 0.25791,-0.067 0.51324,-0.1676 0.766,-0.3017 l 0,0.6731 c -0.25534,0.1084 -0.51712,0.1909 -0.78534,0.2476 -0.26824,0.057 -0.54034,0.085 -0.8163,0.085 -0.69121,0 -1.23928,-0.2011 -1.6442,-0.6035 -0.40235,-0.4023 -0.60352,-0.9465 -0.60352,-1.6326 0,-0.7092 0.19085,-1.2715 0.57257,-1.6867 0.38429,-0.4179 0.9014,-0.6268 1.55135,-0.6268 0.58288,0 1.04326,0.1883 1.38113,0.5649 0.34044,0.3739 0.51066,0.8833 0.51067,1.5281 m -0.71184,-0.2089 c -0.005,-0.3895 -0.11478,-0.7002 -0.32884,-0.9324 -0.2115,-0.2321 -0.49262,-0.3481 -0.84338,-0.3481 -0.39719,0 -0.71572,0.1121 -0.95557,0.3365 -0.23729,0.2244 -0.37398,0.5404 -0.41009,0.9479 l 2.53788,0 m 4.3755,-1.1142 c -0.08,-0.046 -0.16764,-0.08 -0.26307,-0.1006 -0.0928,-0.023 -0.19602,-0.035 -0.30949,-0.035 -0.40235,0 -0.71185,0.1315 -0.92849,0.3946 -0.21407,0.2605 -0.32111,0.6358 -0.32111,1.1258 l 0,2.2825 -0.71571,0 0,-4.3329 0.71571,0 0,0.6731 c 0.14959,-0.263 0.34432,-0.4578 0.58418,-0.5841 0.23986,-0.129 0.5313,-0.1935 0.87433,-0.1935 0.049,0 0.10316,0 0.16248,0.012 0.0593,0.01 0.12509,0.014 0.19731,0.027 l 0.004,0.7312 m 4.27493,1.3231 0,0.3482 -3.27293,0 c 0.0309,0.49 0.17796,0.864 0.44103,1.1219 0.26565,0.2554 0.63447,0.383 1.10645,0.383 0.27339,0 0.53775,-0.034 0.79309,-0.1006 0.25791,-0.067 0.51325,-0.1676 0.766,-0.3017 l 0,0.6731 c -0.25533,0.1084 -0.51712,0.1909 -0.78534,0.2476 -0.26824,0.057 -0.54034,0.085 -0.8163,0.085 -0.69121,0 -1.23928,-0.2011 -1.6442,-0.6035 -0.40235,-0.4023 -0.60352,-0.9465 -0.60352,-1.6326 0,-0.7092 0.19086,-1.2715 0.57257,-1.6867 0.38429,-0.4179 0.9014,-0.6268 1.55135,-0.6268 0.58288,0 1.04326,0.1883 1.38113,0.5649 0.34044,0.3739 0.51066,0.8833 0.51067,1.5281 m -0.71184,-0.2089 c -0.005,-0.3895 -0.11478,-0.7002 -0.32884,-0.9324 -0.2115,-0.2321 -0.49262,-0.3482 -0.84338,-0.3482 -0.39719,0 -0.71572,0.1122 -0.95557,0.3366 -0.23729,0.2244 -0.37398,0.5404 -0.41009,0.9479 l 2.53788,0 m 4.71595,-1.122 0,-2.3444 0.71185,0 0,6.0197 -0.71185,0 0,-0.6499 c -0.14959,0.2579 -0.33916,0.45 -0.5687,0.5764 -0.22696,0.1238 -0.50035,0.1857 -0.82017,0.1857 -0.52356,0 -0.95041,-0.2089 -1.28054,-0.6267 -0.32755,-0.4179 -0.49132,-0.9672 -0.49132,-1.6481 0,-0.6809 0.16377,-1.2302 0.49132,-1.6481 0.33013,-0.4178 0.75698,-0.6267 1.28054,-0.6267 0.31982,0 0.59321,0.063 0.82017,0.1896 0.22954,0.1238 0.41911,0.3146 0.5687,0.5725 m -2.42568,1.5127 c 0,0.5236 0.10703,0.9349 0.3211,1.2341 0.21665,0.2966 0.51325,0.4449 0.88981,0.4449 0.37655,0 0.67315,-0.1483 0.8898,-0.4449 0.21665,-0.2992 0.32497,-0.7105 0.32497,-1.2341 0,-0.5236 -0.10832,-0.9336 -0.32497,-1.2303 -0.21665,-0.2991 -0.51325,-0.4487 -0.8898,-0.4487 -0.37656,0 -0.67316,0.1496 -0.88981,0.4487 -0.21407,0.2967 -0.3211,0.7067 -0.3211,1.2303 m 7.93859,-0.5958 0,2.1162 1.25347,0 c 0.42039,0 0.73118,-0.086 0.93235,-0.2592 0.20375,-0.1754 0.30563,-0.4423 0.30563,-0.8008 0,-0.3611 -0.10188,-0.6268 -0.30563,-0.797 -0.20117,-0.1728 -0.51196,-0.2592 -0.93235,-0.2592 l -1.25347,0 m 0,-2.3754 0,1.7409 1.15675,0 c 0.38171,10e-5 0.66541,-0.071 0.85111,-0.2127 0.18828,-0.1445 0.28242,-0.3637 0.28242,-0.6577 0,-0.2915 -0.0941,-0.5094 -0.28242,-0.6538 -0.1857,-0.1444 -0.4694,-0.2167 -0.85111,-0.2167 l -1.15675,0 m -0.78148,-0.6422 1.99626,0 c 0.59578,0 1.05486,0.1238 1.37726,0.3714 0.32239,0.2476 0.48358,0.5997 0.48359,1.0562 -10e-6,0.3533 -0.0825,0.6344 -0.2476,0.8434 -0.16507,0.2089 -0.40751,0.3391 -0.72732,0.3907 0.38429,0.082 0.68218,0.2553 0.89368,0.5184 0.21406,0.2605 0.32109,0.5868 0.3211,0.9788 -1e-5,0.5158 -0.17539,0.9143 -0.52615,1.1954 -0.35076,0.2811 -0.84983,0.4217 -1.49719,0.4217 l -2.07363,0 0,-5.776 m 7.20354,6.1784 c -0.20118,0.5158 -0.39719,0.8524 -0.58804,1.0097 -0.19086,0.1573 -0.4462,0.236 -0.76601,0.236 l -0.5687,0 0,-0.5958 0.41782,0 c 0.19602,0 0.34819,-0.046 0.45651,-0.1393 0.10832,-0.093 0.22825,-0.3121 0.35979,-0.6577 l 0.12767,-0.3249 -1.75253,-4.2633 0.7544,0 1.35405,3.3889 1.35405,-3.3889 0.75439,0 -1.9034,4.7353"
           id="text4436" />
      </g>
      <g
         transform="matrix(1.1289182,0,0,1.1289182,-50.34585,-168.87028)"
         id="g8790">
        <path
           style="overflow:visible;fill:#ffffff;fill-opacity:1"
           id="path33"
           d="m 352.48347,1323.2582 c -0.0337,0.035 -0.0337,5.6291 -0.1035,7.0893 -0.069,1.1804 -0.17398,3.7175 -2.67581,3.7175 -2.57156,0 -3.19702,-2.9541 -3.4055,-4.2387 -0.24298,-1.4249 -0.24298,-2.6076 -0.24298,-3.1273 0,-1.6687 0.10424,-6.3266 4.03096,-6.3266 1.18191,0 1.84186,0.3488 2.36308,0.6255 l 0.0337,2.2603 z m -10.07703,4.1015 c 0,9.7988 5.21287,9.7988 5.97707,9.7988 2.1546,0 3.54499,-1.1819 4.1352,-3.2315 l 0.0697,3.092 c 0.6607,-0.035 1.32065,-0.1043 2.39758,-0.1043 0.38247,0 0.69444,0 0.97342,0.035 0.27824,0 0.55571,0.034 0.86844,0.069 -0.55571,-1.1114 -0.97268,-3.6133 -0.97268,-9.0361 0,-5.2819 0,-14.2122 0.45147,-16.9233 -1.25016,0.5917 -2.32858,0.9742 -4.69166,1.1819 0.93818,1.008 0.93818,1.5292 0.93818,6.1151 -0.6592,-0.2078 -1.49389,-0.4515 -2.91879,-0.4515 -6.22005,8e-4 -7.22798,5.4221 -7.22798,9.4546"
           inkscape:connector-curvature="0" />
        <path
           style="overflow:visible;fill:#ffffff;fill-opacity:1"
           id="path35"
           d="m 361.25258,1325.5853 c 0.0352,-2.8843 0.62621,-5.4558 3.09278,-5.4558 2.71106,0 2.91804,2.9877 2.84905,5.4558 l -5.94183,0 z m 9.38183,0.3487 c 0,-4.0662 -0.79869,-8.0634 -5.94182,-8.0634 -7.08849,0 -7.08849,7.8557 -7.08849,9.5221 0,7.054 3.16177,9.834 8.47889,9.834 2.36158,0 3.50974,-0.3457 4.1352,-0.5212 -0.0345,-1.2509 0.13874,-2.0503 0.34872,-3.1273 -0.73119,0.453 -1.66938,1.0432 -3.75423,1.0432 -5.42136,0 -5.4911,-4.9361 -5.4911,-6.6385 l 9.24533,0 0.0675,-2.0489"
           inkscape:connector-curvature="0" />
        <path
           style="overflow:visible;fill:#ffffff;fill-opacity:1"
           id="path37"
           d="m 381.93985,1327.4279 c 0,3.2316 -0.59021,7.576 -4.62117,7.576 -0.55646,0 -1.25091,-0.1058 -1.70238,-0.2092 -0.0697,-1.251 -0.0697,-3.4056 -0.0697,-5.9074 0,-2.9893 0.31197,-4.5507 0.55646,-5.3171 0.72894,-2.4666 2.36233,-2.5003 2.6743,-2.5003 2.64131,0 3.16253,3.6485 3.16253,6.358 z m -9.97279,3.788 c 0,2.5723 0,4.031 -0.41697,5.1424 1.4249,0.5564 3.19627,0.8684 5.31712,0.8684 1.35515,0 5.28187,0 7.40122,-4.3429 1.00793,-2.0159 1.35515,-4.7269 1.35515,-6.7773 0,-1.2509 -0.13949,-3.9957 -1.14667,-5.7341 -0.97193,-1.6318 -2.53631,-2.4665 -4.20344,-2.4665 -3.33651,0 -4.30919,2.78 -4.82966,4.2049 0,-1.7721 0.0337,-7.9577 0.31123,-11.1202 -2.25809,1.0432 -3.64924,1.2157 -5.14238,1.3552 1.35515,0.5549 1.35515,2.8505 1.35515,10.3222 l 0,8.5479"
           inkscape:connector-curvature="0" />
        <path
           style="overflow:visible;fill:#ffffff;fill-opacity:1"
           id="path39"
           d="m 392.3041,1337.019 c -0.69595,-0.1043 -1.18341,-0.174 -2.19134,-0.174 -1.10992,0 -1.87637,0.071 -2.67431,0.174 0.34723,-0.6607 0.48597,-0.9742 0.59021,-3.2315 0.13949,-3.0936 0.17399,-11.3647 -0.069,-13.1023 -0.17398,-1.3214 -0.48596,-1.5292 -0.97268,-1.8764 2.84905,-0.2782 3.64849,-0.486 4.9684,-1.1114 -0.27673,1.5276 -0.31348,2.2941 -0.31348,4.6211 -0.0683,11.9909 -0.10349,13.2756 0.6622,14.7005"
           inkscape:connector-curvature="0" />
        <path
           style="overflow:visible;fill:#ffffff;fill-opacity:1"
           id="path41"
           d="m 403.4318,1327.1834 c -0.069,2.1899 -0.10424,3.719 -0.69595,4.9347 -0.7297,1.5644 -1.94536,2.0158 -2.84905,2.0158 -2.0871,0 -2.53706,-1.7368 -2.53706,-3.4392 0,-3.266 2.91954,-3.5113 4.23869,-3.5113 l 1.84337,0 z m -9.55731,4.2755 c 0,2.1898 0.6607,4.3782 2.60756,5.3171 0.86844,0.3825 1.73687,0.3825 2.01585,0.3825 3.19777,0 4.27395,-2.3638 4.93465,-3.8232 -0.0353,1.5291 0,2.4665 0.10424,3.6837 0.62546,-0.035 1.25091,-0.1043 2.29409,-0.1043 0.5902,0 1.14666,0.069 1.73687,0.1043 -0.38247,-0.5902 -0.59021,-0.9389 -0.69595,-2.2941 -0.069,-1.3199 -0.069,-2.6406 -0.069,-4.4824 l 0.0352,-7.0893 c 0,-2.642 -0.69594,-5.2481 -5.90882,-5.2481 -3.43925,0 -5.45436,1.0432 -6.46229,1.5644 0.41772,0.7649 0.76495,1.4234 1.07693,2.9195 1.35665,-1.1819 3.12877,-1.8073 4.93464,-1.8073 2.88579,0 2.88579,1.9116 2.88579,4.6211 -0.6607,-0.034 -1.21716,-0.1027 -2.15609,-0.1027 -4.41493,8e-4 -7.33372,1.7009 -7.33372,6.3588"
           inkscape:connector-curvature="0" />
        <path
           style="overflow:visible;fill:#ffffff;fill-opacity:1"
           id="path43"
           d="m 423.44786,1333.579 c 0.0353,1.1819 0.0353,2.4328 0.52121,3.4407 -0.76569,-0.069 -1.21716,-0.1739 -2.64056,-0.1739 -0.83469,0 -1.28615,0.071 -1.94686,0.1739 0.13799,-0.4514 0.20924,-0.6254 0.27823,-1.2171 0.10424,-0.798 0.17399,-3.4745 0.17399,-4.4135 l 0,-3.7527 c 0,-1.6334 0,-3.9972 -0.10574,-4.8304 -0.069,-0.5902 -0.24149,-2.1883 -2.25884,-2.1883 -1.98061,0 -2.64056,1.4586 -2.88429,2.6405 -0.27673,1.2157 -0.27673,2.5371 -0.27673,7.6795 0.0337,4.4487 0.0337,4.8641 0.38097,6.0813 -0.59021,-0.069 -1.31991,-0.138 -2.36233,-0.138 -0.83469,0 -1.3904,0.034 -2.0841,0.138 0.24298,-0.5565 0.38247,-0.8347 0.45147,-2.7801 0.0705,-1.9116 0.20923,-11.2949 -0.10574,-13.5177 -0.17249,-1.3567 -0.52122,-1.6687 -0.90219,-2.0159 2.8153,-0.1395 3.71748,-0.5917 4.58742,-1.0417 l 0,3.6823 c 0.41622,-1.0785 1.28466,-3.476 4.76066,-3.476 4.34443,0 4.37818,3.1625 4.41343,5.2466 l 0,10.4625"
           inkscape:connector-curvature="0" />
        <path
           style="overflow:visible;fill:#d70751"
           id="path45"
           d="m 392.59733,1312.7792 -2.87829,2.8768 -2.8768,-2.8768 2.8768,-2.8768 2.87829,2.8768"
           inkscape:connector-curvature="0" />
      </g>
      <g
         transform="matrix(1.0664453,0,0,1.0664453,1025.6303,1.8528423)"
         id="g8776">
        <path
           style="fill:#d70751"
           inkscape:connector-curvature="0"
           d="m -596.22914,1162.917 c -1.49397,0.02 0.28099,0.768 2.23195,1.069 0.54099,-0.422 1.02698,-0.846 1.46297,-1.26 -1.21298,0.297 -2.44895,0.304 -3.69492,0.191"
           id="path8692" />
        <path
           style="fill:#d70751"
           inkscape:connector-curvature="0"
           d="m -588.21231,1160.9181 c 0.89298,-1.229 1.54097,-2.573 1.76996,-3.963 -0.20099,0.99 -0.73598,1.845 -1.24397,2.749 -2.79294,1.7589 -0.264,-1.044 -0.002,-2.111 -3.00194,3.7829 -0.41399,2.268 -0.52399,3.325"
           id="path8694" />
        <path
           style="fill:#d70751"
           inkscape:connector-curvature="0"
           d="m -585.24937,1153.2142 c 0.18199,-2.6909 -0.52899,-1.8389 -0.76799,-0.814 0.278,0.146 0.49899,1.898 0.76799,0.814"
           id="path8696" />
        <path
           style="fill:#d70751"
           inkscape:connector-curvature="0"
           d="m -601.89703,1116.436 c 0.79799,0.142 1.72397,0.252 1.59097,0.443 0.87598,-0.193 1.07298,-0.367 -1.59097,-0.443"
           id="path8698" />
        <path
           style="fill:#d70751"
           inkscape:connector-curvature="0"
           d="m -600.30506,1116.879 -0.56099,0.117 0.52299,-0.048 0.038,-0.069"
           id="path8700" />
        <path
           style="fill:#d70751"
           inkscape:connector-curvature="0"
           d="m -575.43658,1154.2342 c 0.09,2.4159 -0.70498,3.5899 -1.42397,5.6659 l -1.29297,0.643 c -1.05698,2.0539 0.105,1.3039 -0.65199,2.9369 -1.65196,1.467 -5.00589,4.5889 -6.07987,4.8749 -0.78498,-0.017 0.53099,-0.926 0.70299,-1.281 -2.20896,1.516 -1.77297,2.276 -5.1519,3.199 l -0.098,-0.221 c -8.32982,3.9199 -19.90158,-3.847 -19.74959,-14.4427 -0.088,0.6719 -0.25299,0.504 -0.43699,0.7739 -0.42999,-5.4508 2.51795,-10.9257 7.48985,-13.1647 4.8629,-2.4059 10.56378,-1.42 14.04471,1.829 -1.91196,-2.506 -5.72088,-5.1629 -10.23179,-4.9169 -4.42091,0.072 -8.55782,2.8809 -9.9378,5.9319 -2.26395,1.4249 -2.52794,5.4958 -3.51392,6.2418 -1.32897,9.7598 2.49695,13.9747 8.96981,18.9356 1.01598,0.686 0.286,0.791 0.42199,1.313 -2.14995,-1.006 -4.11791,-2.5259 -5.73788,-4.3869 0.85998,1.257 1.78696,2.479 2.98594,3.4389 -2.02896,-0.685 -4.7379,-4.9129 -5.52689,-5.0849 3.49493,6.2579 14.17771,10.9748 19.77459,8.6339 -2.58994,0.096 -5.87887,0.053 -8.78681,-1.022 -1.22498,-0.629 -2.88394,-1.93 -2.58695,-2.173 7.63584,2.851 15.52168,2.158 22.12754,-3.1369 1.68197,-1.31 3.51793,-3.5369 4.04892,-3.5669 -0.79899,1.2019 0.13699,0.578 -0.47699,1.6389 1.67196,-2.7009 -0.72899,-1.0999 1.72996,-4.6639 l 0.90798,1.25 c -0.33999,-2.244 2.78494,-4.9659 2.46695,-8.5118 0.71699,-1.084 0.79898,1.168 0.039,3.6619 1.05498,-2.7669 0.27899,-3.2119 0.54899,-5.4959 0.29099,0.768 0.67799,1.583 0.87498,2.394 -0.68798,-2.675 0.70299,-4.5029 1.04898,-6.0579 -0.34199,-0.15 -1.06098,1.182 -1.22698,-1.976 0.025,-1.3719 0.383,-0.719 0.51999,-1.0569 -0.26799,-0.155 -0.97498,-1.207 -1.40397,-3.224 0.309,-0.475 0.83199,1.229 1.25598,1.298 -0.273,-1.603 -0.74199,-2.8259 -0.76199,-4.0569 -1.23997,-2.59 -0.43899,0.346 -1.44297,-1.112 -1.31997,-4.1139 1.09398,-0.955 1.25798,-2.8229 1.99796,2.8949 3.13693,7.3848 3.66192,9.2438 -0.39999,-2.267 -1.04498,-4.4639 -1.83396,-6.5889 0.60899,0.257 -0.97898,-4.6629 0.79098,-1.405 -1.88896,-6.9448 -8.07783,-13.4347 -13.77271,-16.4786 0.69498,0.637 1.57397,1.4369 1.25997,1.5629 -2.83394,-1.6849 -2.33595,-1.8179 -2.74194,-2.5299 -2.30495,-0.939 -2.45895,0.077 -3.98392,0 -4.34991,-2.308 -5.18789,-2.063 -9.19081,-3.5069 l 0.182,0.852 c -2.88094,-0.96 -3.35693,0.3619 -6.46987,0 -0.18899,-0.147 0.99798,-0.536 1.97596,-0.677 -2.78594,0.368 -2.65594,-0.55 -5.38189,0.101 0.67099,-0.471 1.38297,-0.784 2.09896,-1.184 -2.27095,0.138 -5.42389,1.322 -4.45091,0.244 -3.70492,1.6539 -10.28578,3.9749 -13.97871,7.4378 l -0.116,-0.776 c -1.69196,2.031 -7.37884,6.0659 -7.83183,8.6989 l -0.45299,0.105 c -0.87899,1.4909 -1.44997,3.1799 -2.14796,4.7129 -1.15098,1.9629 -1.68796,0.7559 -1.52397,1.0639 -2.26495,4.5919 -3.39193,8.4499 -4.36291,11.6158 0.69199,1.035 0.017,6.2319 0.278,10.3908 -1.13598,20.5436 14.4177,40.4881 31.41935,45.092 2.49194,0.893 6.19687,0.861 9.3488,0.949 -3.71792,-1.0639 -4.19791,-0.563 -7.82184,-1.8259 -2.61294,-1.232 -3.18493,-2.637 -5.03689,-4.2439 l 0.73298,1.2949 c -3.62992,-1.2849 -2.11095,-1.5899 -5.06489,-2.5249 l 0.78298,-1.021 c -1.17697,-0.09 -3.11693,-1.982 -3.64692,-3.0329 l -1.28798,0.051 c -1.54596,-1.906 -2.37095,-3.283 -2.30995,-4.3499 l -0.41599,0.7419 c -0.47099,-0.8089 -5.69088,-7.1578 -2.98294,-5.6798 -0.50299,-0.458 -1.17197,-0.747 -1.89696,-2.066 l 0.55099,-0.629 c -1.30097,-1.677 -2.39795,-3.8259 -2.31395,-4.5419 0.69498,0.938 1.17697,1.114 1.65496,1.275 -3.29093,-8.1639 -3.47592,-0.449 -5.96687,-8.3098 l 0.52599,-0.042 c -0.40299,-0.611 -0.64999,-1.27 -0.97398,-1.919 l 0.22999,-2.285 c -2.36795,-2.7359 -0.66198,-11.6447 -0.31899,-16.5296 0.23499,-1.986 1.97696,-4.1009 3.29993,-7.4179 l -0.80598,-0.138 c 1.54197,-2.6879 8.80181,-10.7987 12.16574,-10.3827 1.62897,-2.046 -0.32399,-0.01 -0.64298,-0.522 3.57892,-3.703 4.7039,-2.616 7.11885,-3.283 2.60295,-1.5449 -2.23495,0.604 -1.00098,-0.589 4.50291,-1.1489 3.18994,-2.6139 9.06281,-3.1969 0.61999,0.352 -1.43697,0.544 -1.95296,1.001 3.74993,-1.836 11.86876,-1.417 17.14465,1.018 6.11687,2.8609 12.99373,11.3137 13.26572,19.2666 l 0.309,0.083 c -0.156,3.1619 0.48399,6.8188 -0.62699,10.1768 l 0.75098,-1.591"
           id="path8702" />
        <path
           style="fill:#d70751"
           inkscape:connector-curvature="0"
           d="m -612.53981,1164.967 -0.21099,1.0469 c 0.98298,1.335 1.76296,2.781 3.01594,3.821 -0.90199,-1.759 -1.57097,-2.486 -2.80495,-4.8679"
           id="path8704" />
        <path
           style="fill:#d70751"
           inkscape:connector-curvature="0"
           d="m -610.21885,1164.877 c -0.51999,-0.576 -0.82599,-1.268 -1.17198,-1.956 0.32999,1.211 1.00598,2.252 1.63297,3.3119 l -0.46099,-1.3559"
           id="path8706" />
        <path
           style="fill:#d70751"
           inkscape:connector-curvature="0"
           d="m -569.13571,1155.9472 -0.21899,0.5519 c -0.40199,2.858 -1.27298,5.6859 -2.60495,8.3089 1.47197,-2.767 2.42095,-5.7939 2.82394,-8.8608"
           id="path8708" />
        <path
           style="fill:#d70751"
           inkscape:connector-curvature="0"
           d="m -601.60003,1115.719 c 1.00898,-0.369 2.48195,-0.203 3.55592,-0.446 -1.39797,0.117 -2.78894,0.187 -4.16191,0.362 l 0.60599,0.084"
           id="path8710" />
        <path
           style="fill:#d70751"
           inkscape:connector-curvature="0"
           d="m -637.0703,1134.5806 c 0.233,2.154 -1.61996,2.9909 0.40999,1.569 1.08998,-2.454 -0.42399,-0.677 -0.40999,-1.569"
           id="path8712" />
        <path
           style="fill:#d70751"
           inkscape:connector-curvature="0"
           d="m -639.45825,1144.5544 c 0.46899,-1.437 0.55299,-2.299 0.73199,-3.1319 -1.29298,1.6539 -0.59599,2.0069 -0.73199,3.1319"
           id="path8714" />
      </g>
    </g>
  </g>
</svg>
